<mxfile host="65bd71144e">
    <diagram id="fNL7M27tDjktLmMP4QVj" name="ページ1">
        <mxGraphModel dx="2807" dy="959" grid="1" gridSize="10" guides="1" tooltips="1" connect="1" arrows="1" fold="1" page="1" pageScale="1" pageWidth="1169" pageHeight="827" math="0" shadow="0">
            <root>
                <mxCell id="0"/>
                <mxCell id="1" parent="0"/>
                <mxCell id="43" value="" style="rounded=0;whiteSpace=wrap;html=1;fillColor=#eeeeee;strokeColor=#36393d;" vertex="1" parent="1">
                    <mxGeometry x="-10" y="40" width="1145" height="1000" as="geometry"/>
                </mxCell>
                <mxCell id="2" value="事務職員" style="shape=umlActor;verticalLabelPosition=bottom;verticalAlign=top;html=1;" parent="1" vertex="1">
                    <mxGeometry x="20" y="130" width="30" height="60" as="geometry"/>
                </mxCell>
                <mxCell id="3" value="メニュー&lt;div&gt;画面&lt;/div&gt;" style="shape=umlBoundary;whiteSpace=wrap;html=1;" parent="1" vertex="1">
                    <mxGeometry x="130" y="120" width="100" height="80" as="geometry"/>
                </mxCell>
                <mxCell id="4" value="" style="endArrow=open;endFill=1;endSize=12;html=1;entryX=0.966;entryY=0.211;entryDx=0;entryDy=0;entryPerimeter=0;exitX=1.016;exitY=0.507;exitDx=0;exitDy=0;exitPerimeter=0;" parent="1" source="8" target="5" edge="1">
                    <mxGeometry width="160" relative="1" as="geometry">
                        <mxPoint x="390" y="161" as="sourcePoint"/>
                        <mxPoint x="390" y="159.5" as="targetPoint"/>
                    </mxGeometry>
                </mxCell>
                <mxCell id="5" value="図書予約&lt;div&gt;画面&lt;/div&gt;" style="shape=umlBoundary;whiteSpace=wrap;html=1;" parent="1" vertex="1">
                    <mxGeometry x="130" y="280" width="100" height="80" as="geometry"/>
                </mxCell>
                <mxCell id="7" value="" style="endArrow=open;endFill=1;endSize=12;html=1;entryX=-0.017;entryY=0.507;entryDx=0;entryDy=0;entryPerimeter=0;" parent="1" edge="1">
                    <mxGeometry width="160" relative="1" as="geometry">
                        <mxPoint x="230" y="159.5" as="sourcePoint"/>
                        <mxPoint x="308" y="159.5" as="targetPoint"/>
                    </mxGeometry>
                </mxCell>
                <mxCell id="8" value="&lt;font style=&quot;font-size: 10px;&quot;&gt;&lt;b style=&quot;&quot;&gt;予約&lt;span style=&quot;color: rgb(63, 63, 63); background-color: transparent;&quot;&gt;メニュー&lt;/span&gt;&lt;/b&gt;&lt;/font&gt;&lt;div&gt;&lt;font style=&quot;font-size: 10px;&quot;&gt;&lt;span style=&quot;color: rgb(63, 63, 63); background-color: transparent;&quot;&gt;&lt;b style=&quot;&quot;&gt;押下&lt;/b&gt;&lt;/span&gt;&lt;/font&gt;&lt;/div&gt;" style="ellipse;shape=umlControl;whiteSpace=wrap;html=1;" parent="1" vertex="1">
                    <mxGeometry x="310" y="120" width="70" height="80" as="geometry"/>
                </mxCell>
                <mxCell id="9" value="" style="endArrow=open;endFill=1;endSize=12;html=1;entryX=0.322;entryY=0.127;entryDx=0;entryDy=0;entryPerimeter=0;" parent="1" source="2" target="5" edge="1">
                    <mxGeometry width="160" relative="1" as="geometry">
                        <mxPoint x="140" y="400" as="sourcePoint"/>
                        <mxPoint x="140" y="270" as="targetPoint"/>
                    </mxGeometry>
                </mxCell>
                <mxCell id="11" value="予約処理" style="ellipse;shape=umlControl;whiteSpace=wrap;html=1;" parent="1" vertex="1">
                    <mxGeometry x="330" y="280" width="70" height="80" as="geometry"/>
                </mxCell>
                <mxCell id="12" value="" style="endArrow=open;endFill=1;endSize=12;html=1;exitX=1.033;exitY=0.499;exitDx=0;exitDy=0;exitPerimeter=0;" parent="1" source="5" edge="1">
                    <mxGeometry width="160" relative="1" as="geometry">
                        <mxPoint x="240" y="320" as="sourcePoint"/>
                        <mxPoint x="330" y="320" as="targetPoint"/>
                    </mxGeometry>
                </mxCell>
                <mxCell id="13" value="会員DB" style="ellipse;shape=umlEntity;whiteSpace=wrap;html=1;" parent="1" vertex="1">
                    <mxGeometry x="545" y="280" width="80" height="80" as="geometry"/>
                </mxCell>
                <mxCell id="18" value="会員詳細画面" style="shape=umlBoundary;whiteSpace=wrap;html=1;" parent="1" vertex="1">
                    <mxGeometry x="130" y="430" width="100" height="80" as="geometry"/>
                </mxCell>
                <mxCell id="19" value="" style="endArrow=open;endFill=0;endSize=12;html=1;exitX=0.374;exitY=1.039;exitDx=0;exitDy=0;exitPerimeter=0;entryX=0.918;entryY=0.244;entryDx=0;entryDy=0;entryPerimeter=0;startArrow=open;startFill=0;strokeWidth=1;" parent="1" edge="1">
                    <mxGeometry width="160" relative="1" as="geometry">
                        <mxPoint x="356.17999999999995" y="359.9999999999999" as="sourcePoint"/>
                        <mxPoint x="221.79999999999995" y="446.4" as="targetPoint"/>
                    </mxGeometry>
                </mxCell>
                <mxCell id="20" value="会員氏名、会員種別を表示する" style="text;html=1;align=center;verticalAlign=middle;resizable=0;points=[];autosize=1;fillColor=default;" parent="1" vertex="1">
                    <mxGeometry x="150" y="384" width="190" height="30" as="geometry"/>
                </mxCell>
                <mxCell id="22" value="書名入力画面" style="shape=umlBoundary;whiteSpace=wrap;html=1;" parent="1" vertex="1">
                    <mxGeometry x="130" y="570" width="100" height="80" as="geometry"/>
                </mxCell>
                <mxCell id="23" value="" style="endArrow=open;endFill=1;endSize=12;html=1;entryX=0.908;entryY=0.174;entryDx=0;entryDy=0;entryPerimeter=0;startArrow=open;startFill=0;exitX=0.455;exitY=1.039;exitDx=0;exitDy=0;exitPerimeter=0;" parent="1" target="22" edge="1" source="11">
                    <mxGeometry width="160" relative="1" as="geometry">
                        <mxPoint x="371.6" y="343.64" as="sourcePoint"/>
                        <mxPoint x="219.99999999999997" y="596.36" as="targetPoint"/>
                    </mxGeometry>
                </mxCell>
                <mxCell id="26" value="" style="endArrow=open;endFill=1;endSize=12;html=1;entryX=0.006;entryY=0.462;entryDx=0;entryDy=0;entryPerimeter=0;" parent="1" target="22" edge="1" source="2">
                    <mxGeometry width="160" relative="1" as="geometry">
                        <mxPoint x="30" y="210" as="sourcePoint"/>
                        <mxPoint x="340" y="370" as="targetPoint"/>
                    </mxGeometry>
                </mxCell>
                <mxCell id="28" value="図書一覧画面" style="shape=umlBoundary;whiteSpace=wrap;html=1;" vertex="1" parent="1">
                    <mxGeometry x="130" y="760" width="100" height="80" as="geometry"/>
                </mxCell>
                <mxCell id="29" value="" style="endArrow=open;endFill=1;endSize=12;html=1;entryX=0.936;entryY=0.2;entryDx=0;entryDy=0;entryPerimeter=0;startArrow=open;startFill=0;" edge="1" parent="1" target="28">
                    <mxGeometry width="160" relative="1" as="geometry">
                        <mxPoint x="370" y="362" as="sourcePoint"/>
                        <mxPoint x="220" y="731" as="targetPoint"/>
                    </mxGeometry>
                </mxCell>
                <mxCell id="31" value="" style="endArrow=open;endFill=1;endSize=12;html=1;entryX=0;entryY=0.375;entryDx=0;entryDy=0;entryPerimeter=0;" edge="1" parent="1" source="2" target="28">
                    <mxGeometry width="160" relative="1" as="geometry">
                        <mxPoint x="10" y="250" as="sourcePoint"/>
                        <mxPoint x="111" y="647" as="targetPoint"/>
                    </mxGeometry>
                </mxCell>
                <mxCell id="34" value="該当する図書を予約する" style="text;html=1;align=center;verticalAlign=middle;resizable=0;points=[];autosize=1;fillColor=default;" vertex="1" parent="1">
                    <mxGeometry x="30" y="730" width="160" height="30" as="geometry"/>
                </mxCell>
                <mxCell id="37" value="予約完了画面" style="shape=umlBoundary;whiteSpace=wrap;html=1;" vertex="1" parent="1">
                    <mxGeometry x="130" y="940" width="100" height="80" as="geometry"/>
                </mxCell>
                <mxCell id="38" value="" style="endArrow=open;endFill=1;endSize=12;html=1;entryX=0.975;entryY=0.337;entryDx=0;entryDy=0;entryPerimeter=0;startArrow=open;startFill=0;exitX=0.716;exitY=0.919;exitDx=0;exitDy=0;exitPerimeter=0;" edge="1" parent="1" source="11" target="37">
                    <mxGeometry width="160" relative="1" as="geometry">
                        <mxPoint x="380" y="372" as="sourcePoint"/>
                        <mxPoint x="234" y="786" as="targetPoint"/>
                    </mxGeometry>
                </mxCell>
                <mxCell id="35" value="予約完了画面を表示する" style="text;html=1;align=center;verticalAlign=middle;resizable=0;points=[];autosize=1;strokeColor=none;fillColor=default;" vertex="1" parent="1">
                    <mxGeometry x="190" y="890" width="160" height="30" as="geometry"/>
                </mxCell>
                <mxCell id="39" value="図書DB" style="ellipse;shape=umlEntity;whiteSpace=wrap;html=1;" vertex="1" parent="1">
                    <mxGeometry x="545" y="130" width="80" height="80" as="geometry"/>
                </mxCell>
                <mxCell id="40" value="" style="endArrow=open;endFill=0;endSize=12;html=1;exitX=0.697;exitY=0.176;exitDx=0;exitDy=0;exitPerimeter=0;startArrow=open;startFill=0;entryX=0.063;entryY=0.75;entryDx=0;entryDy=0;entryPerimeter=0;" edge="1" parent="1" target="39">
                    <mxGeometry width="160" relative="1" as="geometry">
                        <mxPoint x="389.99999999999994" y="303.2799999999999" as="sourcePoint"/>
                        <mxPoint x="560" y="190" as="targetPoint"/>
                    </mxGeometry>
                </mxCell>
                <mxCell id="41" value="" style="endArrow=open;endFill=1;endSize=12;html=1;exitX=1;exitY=0.5;exitDx=0;exitDy=0;exitPerimeter=0;entryX=0;entryY=0.5;entryDx=0;entryDy=0;startArrow=open;startFill=0;" edge="1" parent="1" source="11" target="13">
                    <mxGeometry width="160" relative="1" as="geometry">
                        <mxPoint x="389" y="304" as="sourcePoint"/>
                        <mxPoint x="556" y="191" as="targetPoint"/>
                    </mxGeometry>
                </mxCell>
                <mxCell id="42" value="図書の予約" style="text;html=1;align=center;verticalAlign=middle;resizable=0;points=[];autosize=1;strokeColor=#6c8ebf;fillColor=#dae8fc;fontStyle=1" vertex="1" parent="1">
                    <mxGeometry x="20" y="60" width="80" height="30" as="geometry"/>
                </mxCell>
                <mxCell id="25" value="&lt;font style=&quot;font-size: 10px;&quot;&gt;書名入力画面を表示する&lt;/font&gt;" style="text;html=1;align=center;verticalAlign=middle;resizable=0;points=[];autosize=1;fillColor=default;" parent="1" vertex="1">
                    <mxGeometry x="195" y="515" width="130" height="30" as="geometry"/>
                </mxCell>
                <mxCell id="27" value="書名を入力する" style="text;html=1;align=center;verticalAlign=middle;resizable=0;points=[];autosize=1;strokeColor=none;fillColor=default;" parent="1" vertex="1">
                    <mxGeometry x="90" y="540" width="110" height="30" as="geometry"/>
                </mxCell>
                <mxCell id="10" value="会員番号を送信する" style="text;html=1;align=center;verticalAlign=middle;resizable=0;points=[];autosize=1;strokeColor=none;fillColor=default;" parent="1" vertex="1">
                    <mxGeometry x="50" y="230" width="130" height="30" as="geometry"/>
                </mxCell>
                <mxCell id="30" value="図書一覧画面を表示する" style="text;html=1;align=center;verticalAlign=middle;resizable=0;points=[];autosize=1;strokeColor=none;fillColor=default;" vertex="1" parent="1">
                    <mxGeometry x="165" y="670" width="160" height="30" as="geometry"/>
                </mxCell>
            </root>
        </mxGraphModel>
    </diagram>
</mxfile>